<mxfile host="app.diagrams.net" modified="2024-04-11T01:46:56.326Z" agent="Mozilla/5.0 (Windows NT 10.0; Win64; x64) AppleWebKit/537.36 (KHTML, like Gecko) Chrome/123.0.0.0 Safari/537.36" etag="TW8rVNL_8IsAkU-fpfZH" version="24.2.3" type="device">
  <diagram name="PÃ¡gina-1" id="32L6Jj6_3eqyttZk_CFC">
    <mxGraphModel dx="2261" dy="1949" grid="1" gridSize="10" guides="1" tooltips="1" connect="1" arrows="1" fold="1" page="1" pageScale="1" pageWidth="827" pageHeight="1169" math="0" shadow="0">
      <root>
        <mxCell id="0" />
        <mxCell id="1" parent="0" />
        <mxCell id="uBkP2etiSJewHWUy3CvF-18" value="" style="rounded=1;whiteSpace=wrap;html=1;" vertex="1" parent="1">
          <mxGeometry x="-37.5" y="616.25" width="637.5" height="60" as="geometry" />
        </mxCell>
        <mxCell id="uBkP2etiSJewHWUy3CvF-16" value="" style="rounded=1;whiteSpace=wrap;html=1;" vertex="1" parent="1">
          <mxGeometry x="-36.25" y="616.25" width="637.5" height="60" as="geometry" />
        </mxCell>
        <mxCell id="uITryP0-e0oyXkbSv851-2" value="" style="rounded=0;whiteSpace=wrap;html=1;" parent="1" vertex="1">
          <mxGeometry x="-37.5" y="-133.75" width="640" height="750" as="geometry" />
        </mxCell>
        <mxCell id="uITryP0-e0oyXkbSv851-4" value="nome" style="rounded=1;whiteSpace=wrap;html=1;" parent="1" vertex="1">
          <mxGeometry x="71.25" y="-110" width="420" height="50" as="geometry" />
        </mxCell>
        <mxCell id="uITryP0-e0oyXkbSv851-5" style="edgeStyle=orthogonalEdgeStyle;rounded=0;orthogonalLoop=1;jettySize=auto;html=1;" parent="1" source="uITryP0-e0oyXkbSv851-4" target="uITryP0-e0oyXkbSv851-4" edge="1">
          <mxGeometry relative="1" as="geometry" />
        </mxCell>
        <mxCell id="uITryP0-e0oyXkbSv851-9" value="social" style="ellipse;whiteSpace=wrap;html=1;aspect=fixed;" parent="1" vertex="1">
          <mxGeometry x="80" y="621.25" width="50" height="50" as="geometry" />
        </mxCell>
        <mxCell id="uITryP0-e0oyXkbSv851-10" value="social" style="ellipse;whiteSpace=wrap;html=1;aspect=fixed;" parent="1" vertex="1">
          <mxGeometry x="160" y="621.25" width="50" height="50" as="geometry" />
        </mxCell>
        <mxCell id="uITryP0-e0oyXkbSv851-11" value="social" style="ellipse;whiteSpace=wrap;html=1;aspect=fixed;" parent="1" vertex="1">
          <mxGeometry y="621.25" width="50" height="50" as="geometry" />
        </mxCell>
        <mxCell id="uBkP2etiSJewHWUy3CvF-1" value="foto" style="rounded=1;whiteSpace=wrap;html=1;" vertex="1" parent="1">
          <mxGeometry x="12.5" y="-20" width="140" height="210" as="geometry" />
        </mxCell>
        <mxCell id="uBkP2etiSJewHWUy3CvF-2" value="info" style="rounded=0;whiteSpace=wrap;html=1;" vertex="1" parent="1">
          <mxGeometry x="280" y="-20" width="245" height="190" as="geometry" />
        </mxCell>
        <mxCell id="uBkP2etiSJewHWUy3CvF-3" value="info" style="rounded=1;whiteSpace=wrap;html=1;" vertex="1" parent="1">
          <mxGeometry x="10" y="210" width="530" height="150" as="geometry" />
        </mxCell>
        <mxCell id="uBkP2etiSJewHWUy3CvF-11" value="tabela/cursos" style="whiteSpace=wrap;html=1;aspect=fixed;" vertex="1" parent="1">
          <mxGeometry y="395" width="170" height="170" as="geometry" />
        </mxCell>
        <mxCell id="uBkP2etiSJewHWUy3CvF-19" style="edgeStyle=orthogonalEdgeStyle;rounded=0;orthogonalLoop=1;jettySize=auto;html=1;exitX=0.5;exitY=1;exitDx=0;exitDy=0;" edge="1" parent="1" source="uITryP0-e0oyXkbSv851-2" target="uITryP0-e0oyXkbSv851-2">
          <mxGeometry relative="1" as="geometry" />
        </mxCell>
        <mxCell id="uBkP2etiSJewHWUy3CvF-20" style="edgeStyle=orthogonalEdgeStyle;rounded=0;orthogonalLoop=1;jettySize=auto;html=1;exitX=0.5;exitY=1;exitDx=0;exitDy=0;" edge="1" parent="1" source="uITryP0-e0oyXkbSv851-10" target="uITryP0-e0oyXkbSv851-10">
          <mxGeometry relative="1" as="geometry" />
        </mxCell>
        <mxCell id="uBkP2etiSJewHWUy3CvF-21" value="label" style="rounded=0;whiteSpace=wrap;html=1;" vertex="1" parent="1">
          <mxGeometry x="240" y="390" width="290" height="180" as="geometry" />
        </mxCell>
      </root>
    </mxGraphModel>
  </diagram>
</mxfile>
